<?xml version="1.0" encoding="utf-8"?>
<svg width="500px" height="500px" viewBox="0 0 500 500" version="1.1" xmlns:xlink="http://www.w3.org/1999/xlink" xmlns="http://www.w3.org/2000/svg">
  <defs>
    <path d="M0 0L70 0L70 70L0 70L0 0Z" id="path_1" />
    <clipPath id="mask_1">
      <use xlink:href="#path_1" />
    </clipPath>
  </defs>
  <g id="Group">
    <path d="M0 0L500 0L500 500L0 500L0 0Z" id="Rectangle" fill="#014BA0" fill-rule="evenodd" stroke="none" />
    <g id="DEV" fill="#FFFFFF" transform="translate(204 294)">
      <path d="M21.1659 63.1364L4.40811 63.1364L4.40811 15.8622L21.3087 15.8622Q28.434 15.8622 33.5915 18.6869Q38.7489 21.5116 41.5102 26.8119Q44.2873 32.0963 44.2873 39.4596Q44.2873 46.8388 41.5102 52.1549Q38.7331 57.4552 33.5439 60.2958Q28.3705 63.1364 21.1659 63.1364ZM51.6811 63.1364L51.6811 15.8622L83.5304 15.8622L83.5304 24.0983L61.6786 24.0983L61.6786 35.3654L81.8959 35.3654L81.8959 43.6015L61.6786 43.6015L61.6786 54.9003L83.6256 54.9003L83.6256 63.1364L51.6811 63.1364ZM111.462 51.7741L100.036 15.8622L88.9276 15.8622L105.257 63.1364L118.127 63.1364L134.424 15.8622L123.348 15.8622L111.906 51.7741L111.462 51.7741ZM14.4057 54.567L20.7533 54.567Q27.4184 54.567 30.862 50.9806Q34.3214 47.3783 34.3214 39.4596Q34.3214 31.5885 30.862 28.018Q27.4184 24.4315 20.7692 24.4315L14.4057 24.4315L14.4057 54.567Z" />
    </g>
    <g id="japarra" fill="#FFFFFF" transform="translate(24 159)">
      <path d="M17.6465 45.7288Q13.2983 45.7288 10.1562 42.8089Q7.01416 39.8572 7.01416 35.763Q7.01416 31.637 10.1562 28.7488Q13.2983 25.8289 17.6465 25.8289Q22.0264 25.8289 25.1685 28.7488Q28.3105 31.637 28.3105 35.763Q28.3105 39.8572 25.1685 42.8089Q22.0264 45.7288 17.6465 45.7288ZM295.362 54.8694L276.287 54.8694L276.287 125.773L295.965 125.773L295.965 85.6555Q295.965 79.0857 300.218 75.0232Q304.503 70.929 311.009 70.929Q313.04 70.929 315.484 71.2464Q317.928 71.532 319.324 71.9763L319.324 54.552Q316.405 53.8538 313.135 53.8538Q307.169 53.8538 302.598 57.2498Q298.028 60.6458 296.092 67.2473L295.362 67.2473L295.362 54.8694ZM329.423 54.8694L348.498 54.8694L348.498 67.2473L349.228 67.2473Q351.164 60.6458 355.734 57.2498Q360.304 53.8538 366.271 53.8538Q369.54 53.8538 372.46 54.552L372.46 71.9763Q371.064 71.532 368.62 71.2464Q366.176 70.929 364.145 70.929Q357.638 70.929 353.354 75.0232Q349.101 79.0857 349.101 85.6555L349.101 125.773L329.423 125.773L329.423 54.8694ZM63.4188 127.106Q53.2626 127.106 46.5658 121.805Q39.9008 116.505 39.9008 105.968Q39.9008 98.0335 43.6142 93.5266Q47.3593 88.9881 53.4213 86.8933Q59.515 84.7669 66.5292 84.1321Q75.765 83.2117 79.7323 82.1961Q83.6996 81.1804 83.6996 77.7527L83.6996 77.4988Q83.6996 73.0872 80.9384 70.7068Q78.2089 68.2947 73.1625 68.2947Q67.8622 68.2947 64.7201 70.6116Q61.578 72.9285 60.5624 76.4832L42.3764 74.9915Q44.4076 65.3113 52.4691 59.6301Q60.5307 53.949 73.2577 53.949Q81.1605 53.949 88.016 56.4563Q94.9032 58.9319 99.1244 64.2322Q103.377 69.5008 103.377 77.9431L103.377 125.773L84.7152 125.773L84.7152 115.934L84.1439 115.934Q81.5731 120.885 76.4315 123.995Q71.2899 127.106 63.4188 127.106ZM118.635 54.8694L118.635 152.369L138.312 152.369L138.312 114.41L138.916 114.41Q140.28 117.362 142.788 120.25Q145.327 123.138 149.326 125.043Q153.325 126.915 159.038 126.915Q167.131 126.915 173.637 122.758Q180.144 118.568 183.952 110.443Q187.792 102.286 187.792 90.4163Q187.792 78.2288 183.825 70.1355Q179.89 62.0105 173.383 57.9798Q166.877 53.949 159.069 53.949Q153.166 53.949 149.135 55.9485Q145.136 57.948 142.692 60.8997Q140.249 63.8513 138.916 66.7713L138.027 66.7713L138.027 54.8694L118.635 54.8694ZM221.071 127.106Q210.915 127.106 204.218 121.805Q197.553 116.505 197.553 105.968Q197.553 98.0335 201.267 93.5266Q205.012 88.9881 211.074 86.8933Q217.168 84.7669 224.182 84.1321Q233.418 83.2117 237.385 82.1961Q241.352 81.1804 241.352 77.7527L241.352 77.4988Q241.352 73.0872 238.591 70.7068Q235.861 68.2947 230.815 68.2947Q225.515 68.2947 222.373 70.6116Q219.231 72.9285 218.215 76.4832L200.029 74.9915Q202.06 65.3113 210.122 59.6301Q218.183 53.949 230.91 53.949Q238.813 53.949 245.669 56.4563Q252.556 58.9319 256.777 64.2322Q261.03 69.5008 261.03 77.9431L261.03 125.773L242.368 125.773L242.368 115.934L241.797 115.934Q239.226 120.885 234.084 123.995Q228.943 127.106 221.071 127.106ZM385.923 121.805Q392.62 127.106 402.776 127.106Q410.647 127.106 415.789 123.995Q420.93 120.885 423.501 115.934L424.072 115.934L424.072 125.773L442.734 125.773L442.734 77.9431Q442.734 69.5008 438.481 64.2322Q434.26 58.9319 427.373 56.4563Q420.518 53.949 412.615 53.949Q399.888 53.949 391.826 59.6301Q383.765 65.3113 381.733 74.9915L399.919 76.4832Q400.935 72.9285 404.077 70.6116Q407.219 68.2947 412.52 68.2947Q417.566 68.2947 420.295 70.7068Q423.057 73.0872 423.057 77.4988L423.057 77.7527Q423.057 81.1804 419.089 82.1961Q415.122 83.2117 405.886 84.1321Q398.872 84.7669 392.778 86.8933Q386.716 88.9881 382.971 93.5266Q379.258 98.0335 379.258 105.968Q379.258 116.505 385.923 121.805ZM7.83936 54.8694L27.5171 54.8694L27.5171 129.296Q27.5171 141.61 20.3442 146.974Q13.2031 152.369 0.634766 152.369Q-0.380859 152.369 -1.30127 152.338Q-2.25342 152.306 -3.33252 152.274L-3.33252 136.913Q-2.53906 136.945 -1.93604 136.945Q-1.33301 136.976 -0.72998 136.976Q4.03076 136.976 5.93506 134.977Q7.83936 132.977 7.83936 128.947L7.83936 54.8694ZM141.804 105.524Q137.9 99.7791 137.9 90.3211Q137.9 80.7996 141.772 75.2136Q145.644 69.596 152.817 69.596Q160.085 69.596 163.894 75.3406Q167.702 81.0852 167.702 90.3211Q167.702 99.5886 163.862 105.428Q160.053 111.268 152.817 111.268Q145.708 111.268 141.804 105.524ZM69.0683 113.553Q75.5111 113.553 79.6688 109.777Q83.8266 106 83.8266 100.414L83.8266 92.8919Q82.684 93.6853 80.2401 94.2884Q77.828 94.8914 75.0668 95.3357Q72.3373 95.7801 70.1791 96.0974Q65.0058 96.8274 61.8319 99.0174Q58.6898 101.176 58.6898 105.333Q58.6898 109.396 61.6098 111.491Q64.5297 113.553 69.0683 113.553ZM226.721 113.553Q233.164 113.553 237.321 109.777Q241.479 106 241.479 100.414L241.479 92.8919Q240.337 93.6853 237.893 94.2884Q235.481 94.8914 232.719 95.3357Q229.99 95.7801 227.832 96.0974Q222.658 96.8274 219.485 99.0174Q216.342 101.176 216.342 105.333Q216.342 109.396 219.262 111.491Q222.182 113.553 226.721 113.553ZM419.026 109.777Q414.868 113.553 408.425 113.553Q403.887 113.553 400.967 111.491Q398.047 109.396 398.047 105.333Q398.047 101.176 401.189 99.0174Q404.363 96.8274 409.536 96.0974Q411.694 95.7801 414.424 95.3357Q417.185 94.8914 419.597 94.2884Q422.041 93.6853 423.184 92.8919L423.184 100.414Q423.184 106 419.026 109.777Z" />
    </g>
    <g id="code-tag-svgrepo-com" transform="translate(356 298)">
      <path d="M0 0L70 0L70 70L0 70L0 0Z" id="Background" fill="none" fill-rule="evenodd" stroke="none" />
      <g clip-path="url(#mask_1)">
        <path d="M23.0548 20.1875C24.5391 18.8269 24.6394 16.5207 23.2788 15.0364C21.9182 13.5521 19.612 13.4519 18.1277 14.8125L23.0548 20.1875L23.0548 20.1875ZM4.26401 32.4666L7.18067 35.3832L7.18067 35.3832L4.26401 32.4666L4.26401 32.4666ZM4.26401 34.8457L7.18067 31.9291L7.18067 31.9291L4.26401 34.8457L4.26401 34.8457ZM18.1277 52.2707C19.612 53.6313 21.9182 53.5313 23.2788 52.047C24.6394 50.5627 24.5391 48.2562 23.0548 46.8959L18.1277 52.2707L18.1277 52.2707ZM18.1277 14.8125L1.80042 29.7792L6.72758 35.1543L23.0548 20.1875L18.1277 14.8125L18.1277 14.8125ZM1.80042 37.3042L18.1277 52.2708L23.0548 46.896L6.72758 31.9291L1.80042 37.3042L1.80042 37.3042ZM1.80042 29.7792C-0.406455 31.8022 -0.406455 35.2812 1.80042 37.3042L6.72758 31.929C7.67337 32.7962 7.67337 34.2872 6.72758 35.1543L1.80042 29.7792L1.80042 29.7792Z" id="Shape" fill="#FFFFFF" fill-rule="evenodd" stroke="none" />
        <path d="M46.8292 46.8959C45.3449 48.2562 45.2448 50.5627 46.6052 52.047C47.9658 53.5313 50.272 53.6313 51.7563 52.2707L46.8292 46.8959L46.8292 46.8959ZM66.0733 34.8457L63.1567 31.9291L63.1567 31.9291L66.0733 34.8457L66.0733 34.8457ZM66.0733 32.4666L63.1567 35.3832L63.1567 35.3832L66.0733 32.4666L66.0733 32.4666ZM51.7562 14.8125C50.272 13.4519 47.9657 13.5521 46.6054 15.0364C45.2448 16.5207 45.3448 18.8269 46.8291 20.1875L51.7562 14.8125L51.7562 14.8125ZM51.7563 52.2708L68.0838 37.3042L63.1567 31.9291L46.8292 46.896L51.7563 52.2708L51.7563 52.2708ZM68.0838 29.7792L51.7563 14.8125L46.8292 20.1875L63.1567 35.1543L68.0838 29.7792L68.0838 29.7792ZM68.0838 37.3042C70.2906 35.2812 70.2906 31.8022 68.0838 29.7792L63.1567 35.1543C62.2108 34.2872 62.2108 32.7962 63.1567 31.929L68.0838 37.3042L68.0838 37.3042Z" id="Shape" fill="#FFFFFF" fill-rule="evenodd" stroke="none" />
        <path d="M44.3703 11.0926C44.8585 9.13918 43.6709 7.15972 41.7176 6.67136C39.764 6.18302 37.7847 7.37069 37.2962 9.32409L44.3703 11.0926L44.3703 11.0926ZM25.6296 55.9907C25.1413 57.9443 26.3289 59.9236 28.2823 60.4121C30.2358 60.9003 32.2151 59.7127 32.7036 57.7594L25.6296 55.9907L25.6296 55.9907ZM37.2962 9.3241L25.6296 55.9907L32.7037 57.7593L44.3703 11.0926L37.2962 9.3241L37.2962 9.3241Z" id="Shape" fill="#FFFFFF" fill-rule="evenodd" stroke="none" />
      </g>
    </g>
  </g>
</svg>